<?xml version="1.0" encoding="us-ascii" standalone="no"?><svg xmlns="http://www.w3.org/2000/svg" xmlns:xlink="http://www.w3.org/1999/xlink" contentStyleType="text/css" height="971.875px" preserveAspectRatio="none" style="width:1701px;height:971px;" version="1.1" viewBox="0 0 1701 971" width="1701.0417px" zoomAndPan="magnify"><defs><linearGradient id="g1ovrtw6ilgcuc0" x1="50%" x2="50%" y1="0%" y2="100%"><stop offset="0%" stop-color="#33B2E2"/><stop offset="100%" stop-color="#009FDB"/></linearGradient></defs><g><line style="stroke:#C2C2C2;stroke-width:1.0416666666666667;stroke-dasharray:5.0,5.0;" x1="77.0833" x2="77.0833" y1="57.2591" y2="916.0482"/><line style="stroke:#C2C2C2;stroke-width:1.0416666666666667;stroke-dasharray:5.0,5.0;" x1="220.8333" x2="220.8333" y1="57.2591" y2="916.0482"/><line style="stroke:#C2C2C2;stroke-width:1.0416666666666667;stroke-dasharray:5.0,5.0;" x1="423.9583" x2="423.9583" y1="57.2591" y2="916.0482"/><line style="stroke:#C2C2C2;stroke-width:1.0416666666666667;stroke-dasharray:5.0,5.0;" x1="696.875" x2="696.875" y1="57.2591" y2="916.0482"/><line style="stroke:#C2C2C2;stroke-width:1.0416666666666667;stroke-dasharray:5.0,5.0;" x1="905.2083" x2="905.2083" y1="57.2591" y2="916.0482"/><line style="stroke:#C2C2C2;stroke-width:1.0416666666666667;stroke-dasharray:5.0,5.0;" x1="1120.8333" x2="1120.8333" y1="57.2591" y2="916.0482"/><line style="stroke:#C2C2C2;stroke-width:1.0416666666666667;stroke-dasharray:5.0,5.0;" x1="1418.2292" x2="1418.2292" y1="57.2591" y2="916.0482"/><line style="stroke:#C2C2C2;stroke-width:1.0416666666666667;stroke-dasharray:5.0,5.0;" x1="1609.8958" x2="1609.8958" y1="57.2591" y2="916.0482"/><rect fill="url(#g1ovrtw6ilgcuc0)" height="45.8008" rx="10.4167" ry="10.4167" style="stroke:#33B2E2;stroke-width:1.0416666666666667;" width="61.4583" x="46.875" y="10.4167"/><text fill="#FFFFFF" font-family="Verdana" font-size="12.5" lengthAdjust="spacing" textLength="30.2083" x="62.5" y="37.6444">User</text><rect fill="url(#g1ovrtw6ilgcuc0)" height="45.8008" rx="10.4167" ry="10.4167" style="stroke:#33B2E2;stroke-width:1.0416666666666667;" width="61.4583" x="46.875" y="915.0065"/><text fill="#FFFFFF" font-family="Verdana" font-size="12.5" lengthAdjust="spacing" textLength="30.2083" x="62.5" y="942.2343">User</text><rect fill="url(#g1ovrtw6ilgcuc0)" height="45.8008" rx="10.4167" ry="10.4167" style="stroke:#33B2E2;stroke-width:1.0416666666666667;" width="80.2083" x="181.25" y="10.4167"/><text fill="#FFFFFF" font-family="Verdana" font-size="12.5" lengthAdjust="spacing" textLength="48.9583" x="196.875" y="37.6444">Node.js</text><rect fill="url(#g1ovrtw6ilgcuc0)" height="45.8008" rx="10.4167" ry="10.4167" style="stroke:#33B2E2;stroke-width:1.0416666666666667;" width="80.2083" x="181.25" y="915.0065"/><text fill="#FFFFFF" font-family="Verdana" font-size="12.5" lengthAdjust="spacing" textLength="48.9583" x="196.875" y="942.2343">Node.js</text><rect fill="url(#g1ovrtw6ilgcuc0)" height="45.8008" rx="10.4167" ry="10.4167" style="stroke:#33B2E2;stroke-width:1.0416666666666667;" width="96.875" x="376.0417" y="10.4167"/><text fill="#FFFFFF" font-family="Verdana" font-size="12.5" lengthAdjust="spacing" textLength="65.625" x="391.6667" y="37.6444">Aurora DB</text><rect fill="url(#g1ovrtw6ilgcuc0)" height="45.8008" rx="10.4167" ry="10.4167" style="stroke:#33B2E2;stroke-width:1.0416666666666667;" width="96.875" x="376.0417" y="915.0065"/><text fill="#FFFFFF" font-family="Verdana" font-size="12.5" lengthAdjust="spacing" textLength="65.625" x="391.6667" y="942.2343">Aurora DB</text><rect fill="url(#g1ovrtw6ilgcuc0)" height="45.8008" rx="10.4167" ry="10.4167" style="stroke:#33B2E2;stroke-width:1.0416666666666667;" width="103.125" x="645.8333" y="10.4167"/><text fill="#FFFFFF" font-family="Verdana" font-size="12.5" lengthAdjust="spacing" textLength="71.875" x="661.4583" y="37.6444">SNS Server</text><rect fill="url(#g1ovrtw6ilgcuc0)" height="45.8008" rx="10.4167" ry="10.4167" style="stroke:#33B2E2;stroke-width:1.0416666666666667;" width="103.125" x="645.8333" y="915.0065"/><text fill="#FFFFFF" font-family="Verdana" font-size="12.5" lengthAdjust="spacing" textLength="71.875" x="661.4583" y="942.2343">SNS Server</text><rect fill="url(#g1ovrtw6ilgcuc0)" height="45.8008" rx="10.4167" ry="10.4167" style="stroke:#33B2E2;stroke-width:1.0416666666666667;" width="166.6667" x="821.875" y="10.4167"/><text fill="#FFFFFF" font-family="Verdana" font-size="12.5" lengthAdjust="spacing" textLength="135.4167" x="837.5" y="37.6444">Embeddings Lambda</text><rect fill="url(#g1ovrtw6ilgcuc0)" height="45.8008" rx="10.4167" ry="10.4167" style="stroke:#33B2E2;stroke-width:1.0416666666666667;" width="166.6667" x="821.875" y="915.0065"/><text fill="#FFFFFF" font-family="Verdana" font-size="12.5" lengthAdjust="spacing" textLength="135.4167" x="837.5" y="942.2343">Embeddings Lambda</text><rect fill="url(#g1ovrtw6ilgcuc0)" height="45.8008" rx="10.4167" ry="10.4167" style="stroke:#33B2E2;stroke-width:1.0416666666666667;" width="119.7917" x="1061.4583" y="10.4167"/><text fill="#FFFFFF" font-family="Verdana" font-size="12.5" lengthAdjust="spacing" textLength="88.5417" x="1077.0833" y="37.6444">Botty Lambda</text><rect fill="url(#g1ovrtw6ilgcuc0)" height="45.8008" rx="10.4167" ry="10.4167" style="stroke:#33B2E2;stroke-width:1.0416666666666667;" width="119.7917" x="1061.4583" y="915.0065"/><text fill="#FFFFFF" font-family="Verdana" font-size="12.5" lengthAdjust="spacing" textLength="88.5417" x="1077.0833" y="942.2343">Botty Lambda</text><rect fill="url(#g1ovrtw6ilgcuc0)" height="45.8008" rx="10.4167" ry="10.4167" style="stroke:#33B2E2;stroke-width:1.0416666666666667;" width="77.0833" x="1379.6875" y="10.4167"/><text fill="#FFFFFF" font-family="Verdana" font-size="12.5" lengthAdjust="spacing" textLength="45.8333" x="1395.3125" y="37.6444">OpenAI</text><rect fill="url(#g1ovrtw6ilgcuc0)" height="45.8008" rx="10.4167" ry="10.4167" style="stroke:#33B2E2;stroke-width:1.0416666666666667;" width="77.0833" x="1379.6875" y="915.0065"/><text fill="#FFFFFF" font-family="Verdana" font-size="12.5" lengthAdjust="spacing" textLength="45.8333" x="1395.3125" y="942.2343">OpenAI</text><rect fill="url(#g1ovrtw6ilgcuc0)" height="45.8008" rx="10.4167" ry="10.4167" style="stroke:#33B2E2;stroke-width:1.0416666666666667;" width="160.4167" x="1529.6875" y="10.4167"/><text fill="#FFFFFF" font-family="Verdana" font-size="12.5" lengthAdjust="spacing" textLength="129.1667" x="1545.3125" y="37.6444">Notification Lambda</text><rect fill="url(#g1ovrtw6ilgcuc0)" height="45.8008" rx="10.4167" ry="10.4167" style="stroke:#33B2E2;stroke-width:1.0416666666666667;" width="160.4167" x="1529.6875" y="915.0065"/><text fill="#FFFFFF" font-family="Verdana" font-size="12.5" lengthAdjust="spacing" textLength="129.1667" x="1545.3125" y="942.2343">Notification Lambda</text><polygon fill="#009FDB" points="208.8542,100.9766,219.2708,105.1432,208.8542,109.3099,213.0208,105.1432" style="stroke:#009FDB;stroke-width:1.0416666666666667;"/><line style="stroke:#009FDB;stroke-width:3.125;" x1="77.6042" x2="215.1042" y1="105.1432" y2="105.1432"/><text fill="#5A5A5A" font-family="Verdana" font-size="12.5" lengthAdjust="spacing" textLength="58.3333" x="93.2292" y="91.7786">Interacts</text><polygon fill="#009FDB" points="411.9792,146.7773,422.3958,150.944,411.9792,155.1107,416.1458,150.944" style="stroke:#009FDB;stroke-width:1.0416666666666667;"/><line style="stroke:#009FDB;stroke-width:3.125;" x1="221.3542" x2="418.2292" y1="150.944" y2="150.944"/><text fill="#5A5A5A" font-family="Verdana" font-size="12.5" lengthAdjust="spacing" textLength="161.4583" x="236.9792" y="137.5793">Saves request for advice</text><polygon fill="#009FDB" points="684.8958,192.5781,695.3125,196.7448,684.8958,200.9115,689.0625,196.7448" style="stroke:#009FDB;stroke-width:1.0416666666666667;"/><line style="stroke:#009FDB;stroke-width:3.125;" x1="424.4792" x2="691.1458" y1="196.7448" y2="196.7448"/><text fill="#5A5A5A" font-family="Verdana" font-size="12.5" lengthAdjust="spacing" textLength="200" x="440.1042" y="183.3801">Message to "New Advice" topic</text><polygon fill="#009FDB" points="892.7083,238.3789,903.125,242.5456,892.7083,246.7122,896.875,242.5456" style="stroke:#009FDB;stroke-width:1.0416666666666667;"/><line style="stroke:#009FDB;stroke-width:3.125;" x1="697.3958" x2="898.9583" y1="242.5456" y2="242.5456"/><text fill="#5A5A5A" font-family="Verdana" font-size="12.5" lengthAdjust="spacing" textLength="100" x="713.0208" y="229.1809">Listens to topic</text><polygon fill="#009FDB" points="435.9375,284.1797,425.5208,288.3464,435.9375,292.513,431.7708,288.3464" style="stroke:#009FDB;stroke-width:1.0416666666666667;"/><line style="stroke:#009FDB;stroke-width:3.125;" x1="429.6875" x2="904.1667" y1="288.3464" y2="288.3464"/><text fill="#5A5A5A" font-family="Verdana" font-size="12.5" lengthAdjust="spacing" textLength="97.9167" x="450.5208" y="274.9817">Get advice text</text><polygon fill="#009FDB" points="1405.7292,329.9805,1416.1458,334.1471,1405.7292,338.3138,1409.8958,334.1471" style="stroke:#009FDB;stroke-width:1.0416666666666667;"/><line style="stroke:#009FDB;stroke-width:3.125;" x1="905.2083" x2="1411.9792" y1="334.1471" y2="334.1471"/><text fill="#5A5A5A" font-family="Verdana" font-size="12.5" lengthAdjust="spacing" textLength="115.625" x="920.8333" y="320.7825">Sends advice text</text><polygon fill="#009FDB" points="916.6667,375.7813,906.25,379.9479,916.6667,384.1146,912.5,379.9479" style="stroke:#009FDB;stroke-width:1.0416666666666667;"/><line style="stroke:#009FDB;stroke-width:3.125;" x1="910.4167" x2="1417.1875" y1="379.9479" y2="379.9479"/><text fill="#5A5A5A" font-family="Verdana" font-size="12.5" lengthAdjust="spacing" textLength="125" x="931.25" y="366.5833">Sends embeddings</text><polygon fill="#009FDB" points="435.9375,421.582,425.5208,425.7487,435.9375,429.9154,431.7708,425.7487" style="stroke:#009FDB;stroke-width:1.0416666666666667;"/><line style="stroke:#009FDB;stroke-width:3.125;" x1="429.6875" x2="904.1667" y1="425.7487" y2="425.7487"/><text fill="#5A5A5A" font-family="Verdana" font-size="12.5" lengthAdjust="spacing" textLength="122.9167" x="450.5208" y="412.384">Saves embeddings</text><line style="stroke:#009FDB;stroke-width:3.125;" x1="905.2083" x2="948.9583" y1="471.5495" y2="471.5495"/><line style="stroke:#009FDB;stroke-width:3.125;" x1="948.9583" x2="948.9583" y1="471.5495" y2="485.0911"/><line style="stroke:#009FDB;stroke-width:3.125;" x1="906.25" x2="948.9583" y1="485.0911" y2="485.0911"/><polygon fill="#009FDB" points="916.6667,480.9245,906.25,485.0911,916.6667,489.2578,912.5,485.0911" style="stroke:#009FDB;stroke-width:1.0416666666666667;"/><text fill="#5A5A5A" font-family="Verdana" font-size="12.5" lengthAdjust="spacing" textLength="140.625" x="920.8333" y="458.1848">Checks for more work</text><polygon fill="#009FDB" points="1108.8542,526.7253,1119.2708,530.8919,1108.8542,535.0586,1113.0208,530.8919" style="stroke:#009FDB;stroke-width:1.0416666666666667;"/><line style="stroke:#009FDB;stroke-width:3.125;" x1="697.3958" x2="1115.1042" y1="530.8919" y2="530.8919"/><text fill="#5A5A5A" font-family="Verdana" font-size="12.5" lengthAdjust="spacing" textLength="100" x="713.0208" y="517.5273">Listens to topic</text><polygon fill="#009FDB" points="1405.7292,572.526,1416.1458,576.6927,1405.7292,580.8594,1409.8958,576.6927" style="stroke:#009FDB;stroke-width:1.0416666666666667;"/><line style="stroke:#009FDB;stroke-width:3.125;" x1="1121.3542" x2="1411.9792" y1="576.6927" y2="576.6927"/><text fill="#5A5A5A" font-family="Verdana" font-size="12.5" lengthAdjust="spacing" textLength="122.9167" x="1136.9792" y="563.328">Get diagnostic info</text><polygon fill="#009FDB" points="435.9375,618.3268,425.5208,622.4935,435.9375,626.6602,431.7708,622.4935" style="stroke:#009FDB;stroke-width:1.0416666666666667;"/><line style="stroke:#009FDB;stroke-width:3.125;" x1="429.6875" x2="1120.3125" y1="622.4935" y2="622.4935"/><text fill="#5A5A5A" font-family="Verdana" font-size="12.5" lengthAdjust="spacing" textLength="141.6667" x="450.5208" y="609.1288">Saves diagnostic json</text><polygon fill="#009FDB" points="1405.7292,664.1276,1416.1458,668.2943,1405.7292,672.4609,1409.8958,668.2943" style="stroke:#009FDB;stroke-width:1.0416666666666667;"/><line style="stroke:#009FDB;stroke-width:3.125;" x1="1121.3542" x2="1411.9792" y1="668.2943" y2="668.2943"/><text fill="#5A5A5A" font-family="Verdana" font-size="12.5" lengthAdjust="spacing" textLength="255.2083" x="1136.9792" y="654.9296">Sends content &amp; user's advice request</text><polygon fill="#009FDB" points="1132.8125,709.9284,1122.3958,714.0951,1132.8125,718.2617,1128.6458,714.0951" style="stroke:#009FDB;stroke-width:1.0416666666666667;"/><line style="stroke:#009FDB;stroke-width:3.125;" x1="1126.5625" x2="1417.1875" y1="714.0951" y2="714.0951"/><text fill="#5A5A5A" font-family="Verdana" font-size="12.5" lengthAdjust="spacing" textLength="64.5833" x="1147.3958" y="700.7304">Responds</text><polygon fill="#009FDB" points="435.9375,755.7292,425.5208,759.8958,435.9375,764.0625,431.7708,759.8958" style="stroke:#009FDB;stroke-width:1.0416666666666667;"/><line style="stroke:#009FDB;stroke-width:3.125;" x1="429.6875" x2="1120.3125" y1="759.8958" y2="759.8958"/><text fill="#5A5A5A" font-family="Verdana" font-size="12.5" lengthAdjust="spacing" textLength="77.0833" x="450.5208" y="746.5312">Updates DB</text><polygon fill="#009FDB" points="684.8958,801.5299,695.3125,805.6966,684.8958,809.8633,689.0625,805.6966" style="stroke:#009FDB;stroke-width:1.0416666666666667;"/><line style="stroke:#009FDB;stroke-width:3.125;" x1="424.4792" x2="691.1458" y1="805.6966" y2="805.6966"/><text fill="#5A5A5A" font-family="Verdana" font-size="12.5" lengthAdjust="spacing" textLength="231.25" x="440.1042" y="792.3319">Message to "Advice Received" topic</text><polygon fill="#009FDB" points="1597.3958,847.3307,1607.8125,851.4974,1597.3958,855.6641,1601.5625,851.4974" style="stroke:#009FDB;stroke-width:1.0416666666666667;"/><line style="stroke:#009FDB;stroke-width:3.125;" x1="697.3958" x2="1603.6458" y1="851.4974" y2="851.4974"/><text fill="#5A5A5A" font-family="Verdana" font-size="12.5" lengthAdjust="spacing" textLength="100" x="713.0208" y="838.1327">Listens to topic</text><polygon fill="#009FDB" points="89.0625,893.1315,78.6458,897.2982,89.0625,901.4648,84.8958,897.2982" style="stroke:#009FDB;stroke-width:1.0416666666666667;"/><line style="stroke:#009FDB;stroke-width:3.125;" x1="82.8125" x2="1608.8542" y1="897.2982" y2="897.2982"/><text fill="#5A5A5A" font-family="Verdana" font-size="12.5" lengthAdjust="spacing" textLength="150" x="103.6458" y="883.9335">Notifies advice is ready</text><!--SRC=[ZPD1Ri8m44NtESMKHRjg3v159LAg2ebIgH5hPEmX61exjPrGRbyd3i59JEdIu__7Cq_VTsQ7ESBcgyHCaLDK46KuvGKH1bOQLQ-mb0oVzhfNcvPAAhAU9K0qJDm9Pica9qgNwJf5LQ5gLFO8xjYNlUORP8oBJAyN9DymqgWlLN3LlYcHnfnyVLC8IZyA5DFvO2N3jvmImwNmc_ZrhbTK4u77vpC8Y64k32f2ZOxEDNjzOH93IYhKeF2xH6rWAoq1Ld6AqKLa7HwW6DvHQv8X66ddm2DC6yF4dWjE8qzgZMDaCIouDYXqxNUMiMWmv1kQTYmm-6F21aUlNWa5qprzUtLb7gV7xkRsF0xQBKVehPSTqeDkEETI8HobEaG3Pht4173rxlt5QqoCaqn8RGC4N6pbI3nUmtFijHJNspjELDf8sMJUGsdJzj21RYFaiHxiyOcwaBR3doEj2aQC7MgMHFzCe4kVxKwHLyZ2CGnzem3PaCowcsyLjqsmsvZN_uQmqoy0]--></g></svg>